<svg width="24" height="25" viewBox="0 0 24 25" fill="none" xmlns="http://www.w3.org/2000/svg">
<path d="M10.38 17L16.23 13.25C16.51 13.07 16.65 12.82 16.65 12.5C16.65 12.18 16.51 11.93 16.23 11.75L10.38 8C10.08 7.8 9.775 7.785 9.465 7.955C9.155 8.125 9 8.39 9 8.75V16.25C9 16.61 9.155 16.875 9.465 17.045C9.775 17.215 10.08 17.2 10.38 17ZM12 24.5C10.34 24.5 8.78 24.185 7.32 23.555C5.86 22.925 4.59 22.07 3.51 20.99C2.43 19.91 1.575 18.64 0.945 17.18C0.315 15.72 0 14.16 0 12.5C0 10.84 0.315 9.28 0.945 7.82C1.575 6.36 2.43 5.09 3.51 4.01C4.59 2.93 5.86 2.075 7.32 1.445C8.78 0.815 10.34 0.5 12 0.5C13.66 0.5 15.22 0.815 16.68 1.445C18.14 2.075 19.41 2.93 20.49 4.01C21.57 5.09 22.425 6.36 23.055 7.82C23.685 9.28 24 10.84 24 12.5C24 14.16 23.685 15.72 23.055 17.18C22.425 18.64 21.57 19.91 20.49 20.99C19.41 22.07 18.14 22.925 16.68 23.555C15.22 24.185 13.66 24.5 12 24.5Z" fill="#0554F2"/>
<path d="M10.38 17L16.23 13.25C16.51 13.07 16.65 12.82 16.65 12.5C16.65 12.18 16.51 11.93 16.23 11.75L10.38 8C10.08 7.8 9.775 7.785 9.465 7.955C9.155 8.125 9 8.39 9 8.75V16.25C9 16.61 9.155 16.875 9.465 17.045C9.775 17.215 10.08 17.2 10.38 17Z" fill="white"/>
</svg>
